<svg id="dashboard" xmlns="http://www.w3.org/2000/svg" width="24" height="24" viewBox="0 0 24 24">
  <rect id="Rectangle_1" data-name="Rectangle 1" width="24" height="24" fill="#fff"/>
  <path id="Path_1" data-name="Path 1" d="M15.024,22a15.268,15.268,0,0,0,3.227-.265,4.56,4.56,0,0,0,2.314-1.17,4.56,4.56,0,0,0,1.17-2.314A15.268,15.268,0,0,0,22,15.024V12a2,2,0,0,0-2-2H12a2,2,0,0,0-2,2v8a2,2,0,0,0,2,2Z"/>
  <path id="Path_2" data-name="Path 2" d="M2,15.024a15.269,15.269,0,0,0,.266,3.227,4.56,4.56,0,0,0,1.17,2.314,4.56,4.56,0,0,0,2.314,1.17q.131.029.263.054A1.737,1.737,0,0,0,8,19.976V12a2,2,0,0,0-2-2H4a2,2,0,0,0-2,2Z"/>
  <path id="Path_3" data-name="Path 3" d="M8.976,2a15.27,15.27,0,0,0-3.227.266,4.56,4.56,0,0,0-2.314,1.17,4.56,4.56,0,0,0-1.17,2.314q-.025.112-.047.225A1.769,1.769,0,0,0,4.058,8H19.976a1.737,1.737,0,0,0,1.813-1.988q-.026-.132-.054-.263a4.56,4.56,0,0,0-1.17-2.314,4.56,4.56,0,0,0-2.314-1.17A15.27,15.27,0,0,0,15.024,2Z"/>
</svg>
