<svg xmlns="http://www.w3.org/2000/svg" width="28" height="28" viewBox="0 0 28 28">
  <path id="scheduleIcon" d="M7,7V3A1,1,0,0,1,9,3V7A1,1,0,0,1,7,7ZM30,8V24a3,3,0,0,1-3,3H5a3,3,0,0,1-3-3V8A3,3,0,0,1,5,5H6V7a2,2,0,0,0,4,0V5H22V7a2,2,0,0,0,4,0V5h1A3,3,0,0,1,30,8ZM14,16a1,1,0,0,0-1-1h-.5a.5.5,0,0,0,0,1H13v6.5a.5.5,0,0,0,1,0Zm5,0a1,1,0,0,0-1-1h-.5a.5.5,0,0,0,0,1H18v6.5a.5.5,0,0,0,1,0Zm10-4.5a.5.5,0,0,0-.5-.5H3.5a.5.5,0,0,0,0,1h25A.5.5,0,0,0,29,11.5ZM24,8a1,1,0,0,0,1-1V3a1,1,0,0,0-2,0V7A1,1,0,0,0,24,8ZM5,28a3.975,3.975,0,0,1-3-1.382V27a3,3,0,0,0,3,3H27a3,3,0,0,0,3-3v-.382A3.975,3.975,0,0,1,27,28Z" transform="translate(-2 -2)"/>
</svg>
